# xmcd
#
# Track frame offsets:
#	150
#	17429
#	33904
#	59102
#	75765
#	97959
#	115589
#	131185
#	150645
#	168783
#	189692
#
# Disc length: 2809 seconds
#
# Revision: 1
# Processed by: cddbd v1.5.2PL0 Copyright (c) Steve Scherf et al.
# Submitted via: audiograbber 1.83.01
#
DISCID=7c0af70b
DTITLE=The Washington Projects - Space Time Continium [Disc 2]
DYEAR=2012
DGENRE=Christian Hip-Hop
TTITLE0=Light Up The Dark
TTITLE1=You Are Beautiful
TTITLE2=My Dream
TTITLE3=Stay
TTITLE4=Work
TTITLE5=Come Back To Me
TTITLE6=Go
TTITLE7=Justus
TTITLE8=Yesterday
TTITLE9=Momma
TTITLE10=Heaven Here I Come
EXTD=
EXTT0=
EXTT1=
EXTT2=
EXTT3=
EXTT4=
EXTT5=
EXTT6=
EXTT7=
EXTT8=
EXTT9=
EXTT10=
PLAYORDER=
